<?xml version="1.0" standalone="no"?>
<!DOCTYPE svg PUBLIC "-//W3C//DTD SVG 20010904//EN"
 "http://www.w3.org/TR/2001/REC-SVG-20010904/DTD/svg10.dtd">
<svg version="1.0" xmlns="http://www.w3.org/2000/svg"
 width="200.000000pt" height="200.000000pt" viewBox="0 0 200.000000 200.000000"
 preserveAspectRatio="xMidYMid meet">
<metadata>
Created by potrace 1.11, written by Peter Selinger 2001-2013
</metadata>
<g transform="translate(0.000000,200.000000) scale(0.100000,-0.100000)"
fill="#000000" stroke="none">
<path d="M821 1846 c-12 -12 -21 -35 -21 -51 0 -20 -10 -38 -33 -59 -19 -17
-84 -78 -146 -136 -91 -85 -120 -106 -158 -116 -61 -15 -87 -46 -79 -94 3 -19
15 -43 26 -52 l21 -17 -80 -178 c-77 -170 -82 -178 -113 -185 -67 -13 -87 -78
-43 -138 14 -19 23 -41 21 -49 -3 -9 -7 -68 -11 -131 -11 -205 -14 -222 -43
-253 -51 -53 -27 -129 46 -143 28 -6 37 -2 66 29 l33 36 326 4 325 4 12 -23
c7 -12 26 -28 42 -35 24 -10 35 -9 64 4 l34 17 165 -66 c91 -36 165 -70 165
-74 0 -14 54 -28 77 -19 25 9 73 86 73 117 0 30 148 345 167 357 27 16 65 58
74 83 13 34 -12 86 -49 101 -28 12 -30 17 -37 79 -4 37 -9 75 -10 84 -2 9 -7
48 -10 85 -4 37 -11 89 -15 115 -5 38 -3 53 11 75 11 15 19 38 19 50 0 35 -40
74 -78 76 -29 2 -46 17 -137 122 -90 103 -103 121 -91 135 48 55 5 150 -68
150 -14 0 -41 -7 -60 -17 -34 -16 -38 -15 -188 25 -84 23 -157 42 -163 42 -5
0 -21 13 -35 30 -33 39 -72 45 -99 16z m275 -131 c91 -25 167 -45 170 -45 2 0
4 -12 4 -27 0 -21 -28 -62 -107 -156 -101 -122 -109 -128 -137 -123 -16 4 -31
8 -34 10 -10 10 -92 360 -88 373 7 18 6 18 192 -32z m-201 -164 l47 -189 -22
-30 -22 -30 -164 56 c-147 51 -165 60 -175 85 -11 26 -10 31 13 50 14 12 66
59 115 104 88 81 157 143 159 143 1 0 23 -85 49 -189z m457 13 c17 -2 40 -17
57 -36 175 -201 200 -237 169 -239 -7 0 -117 -2 -245 -4 -301 -4 -293 -15
-129 178 54 64 103 114 109 110 5 -3 23 -7 39 -9z m-445 -340 l16 -32 -93
-133 c-51 -74 -96 -138 -100 -142 -4 -4 -19 -3 -33 4 -22 10 -35 39 -95 213
-91 263 -98 253 125 178 154 -52 166 -58 180 -88z m-352 -84 c78 -226 76 -220
60 -226 -7 -3 -19 -19 -25 -35 -14 -33 -11 -32 -65 -20 -22 5 -60 12 -85 15
-94 13 -105 17 -118 45 -11 25 -5 42 69 206 93 207 89 199 99 188 4 -4 34 -82
65 -173z m1035 90 c5 -8 -9 -42 -37 -89 -25 -42 -72 -123 -105 -179 -60 -103
-91 -132 -115 -109 -6 7 -65 89 -131 184 -98 141 -118 175 -109 187 10 13 45
16 207 18 259 4 281 3 290 -12z m71 -62 c0 -13 2 -31 4 -41 2 -10 6 -46 9 -80
6 -53 21 -184 30 -252 2 -11 -5 -31 -15 -44 -11 -13 -19 -30 -19 -38 0 -9 -6
-13 -12 -11 -7 3 -55 20 -106 38 -80 29 -94 37 -108 65 -15 32 -15 33 40 124
31 50 56 96 56 101 0 6 3 10 8 10 4 0 13 13 19 28 21 47 72 122 83 122 5 0 10
-10 11 -22z m-496 -159 c61 -88 114 -166 120 -174 10 -16 -5 -51 -22 -48 -4 0
-37 4 -73 8 -36 4 -67 8 -70 10 -3 1 -36 6 -75 10 -142 14 -278 34 -286 42 -9
9 16 50 132 213 l67 96 48 1 49 1 110 -159z m-770 -173 c101 -12 191 -30 203
-39 21 -16 34 2 -153 -203 -49 -54 -107 -118 -128 -141 -34 -37 -41 -41 -58
-30 -17 10 -19 20 -15 77 7 98 19 273 19 288 0 6 6 12 13 12 6 0 22 11 35 24
13 13 28 22 33 21 6 -2 29 -6 51 -9z m495 -51 c19 -3 55 -7 80 -10 25 -3 61
-7 80 -10 19 -2 75 -9 124 -15 49 -6 93 -13 98 -16 18 -11 4 -40 -84 -174
-126 -189 -115 -190 -285 13 -70 84 -134 160 -141 169 -8 10 -11 26 -7 37 7
22 18 22 135 6z m-50 -210 c74 -90 136 -170 138 -178 7 -33 16 -32 -451 -37
-115 -1 -212 1 -217 6 -5 5 18 38 53 75 85 90 227 246 254 278 18 22 29 26 55
23 29 -4 52 -27 168 -167z m731 110 c82 -30 135 -66 124 -85 -3 -5 -47 -100
-100 -216 l-33 -72 -36 12 c-20 6 -38 18 -41 26 -2 8 -18 78 -35 154 -17 77
-33 143 -36 148 -7 10 37 67 52 67 6 1 53 -15 105 -34z m-205 -29 c0 -1 17
-75 38 -165 l38 -163 -22 -40 c-12 -21 -19 -45 -16 -53 8 -22 -2 -20 -143 36
-171 68 -169 61 -42 253 88 133 98 144 121 139 14 -3 25 -6 26 -7z"/>
</g>
</svg>
